<svg width="133" height="64" viewBox="0 0 133 64" fill="none" xmlns="http://www.w3.org/2000/svg">
<path d="M50 2L77.7128 48.5H22.2872L50 2Z" fill="#343434"/>
<ellipse cx="82.5" cy="28.5" rx="25.5" ry="21.5" fill="#387B20"/>
<path d="M30.4998 44L40.4938 19.794L42.6598 20.744L33.5398 44H30.4998ZM49.8038 44L40.1138 19.414L43.1158 18.388L53.6418 44H49.8038ZM36.0098 36.362V34.044H47.0678V36.362H36.0098ZM28.5617 44L28.3337 42.784C28.9164 42.5053 29.5244 42.2647 30.1578 42.062C30.8164 41.834 31.4624 41.6313 32.0958 41.454L32.1338 44H28.5617ZM33.0458 44L33.1598 41.606L38.4038 42.214L38.3658 44H33.0458ZM45.3198 44L45.0918 42.784C45.6744 42.5053 46.2824 42.2647 46.9158 42.062C47.5744 41.834 48.2204 41.6313 48.8538 41.454L50.8678 44H45.3198ZM50.1838 44L50.2978 41.606L55.5418 42.214L55.5038 44H50.1838ZM69.3936 44.76C67.5696 44.8613 65.9356 44.6967 64.4916 44.266C63.0476 43.8607 61.7936 43.2527 60.7296 42.442C59.6656 41.6313 58.779 40.6813 58.0696 39.592C57.3603 38.5027 56.8283 37.3247 56.4736 36.058C56.119 34.7913 55.9416 33.4993 55.9416 32.182C55.9416 30.4593 56.2076 28.7873 56.7396 27.166C57.2716 25.5447 58.0696 24.088 59.1336 22.796C60.223 21.504 61.591 20.478 63.2376 19.718C64.8843 18.9327 66.8096 18.54 69.0136 18.54C70.8883 18.54 72.4716 18.8187 73.7636 19.376C75.081 19.908 76.031 20.402 76.6136 20.858L75.5496 24.392C75.5496 24.392 75.2836 24.202 74.7516 23.822C74.2196 23.442 73.4723 23.024 72.5096 22.568C71.547 22.0867 70.3943 21.7067 69.0516 21.428C67.7343 21.1493 66.2776 21.1113 64.6816 21.314C63.5416 21.9473 62.6043 22.8213 61.8696 23.936C61.1603 25.0253 60.641 26.2667 60.3116 27.66C59.9823 29.028 59.8176 30.434 59.8176 31.878C59.8176 33.5753 60.1343 35.1967 60.7676 36.742C61.401 38.2873 62.351 39.5413 63.6176 40.504C64.9096 41.4667 66.493 41.948 68.3676 41.948C69.2036 41.948 70.0396 41.872 70.8756 41.72C71.7116 41.568 72.497 41.3653 73.2316 41.112C73.9663 40.8587 74.5996 40.6053 75.1316 40.352L76.8036 41.302L69.3936 44.76ZM74.1436 35.602C73.4343 35.3993 72.611 35.1587 71.6736 34.88C70.7616 34.6013 69.9003 34.272 69.0896 33.892L69.3176 32.562H73.5736L74.1436 35.602ZM73.2696 41.758V32.562H76.8036V41.302L73.2696 41.758ZM73.9156 35.146L72.7376 32.562H79.6536L79.6916 34.424L73.9156 35.146ZM73.7256 26.368L73.3836 22.568L76.6136 20.858C76.6643 21.2633 76.677 21.7573 76.6516 22.34C76.6263 22.9227 76.563 23.556 76.4616 24.24C76.3603 24.8987 76.1956 25.608 75.9676 26.368H73.7256ZM86.3238 34.158L86.4378 31.422C87.2485 31.5993 88.0338 31.726 88.7938 31.802C89.5792 31.878 90.2505 31.916 90.8078 31.916C92.0998 31.916 93.1638 31.7513 93.9998 31.422C94.8358 31.0673 95.4692 30.6113 95.8998 30.054C96.3558 29.4713 96.6725 28.8633 96.8498 28.23C97.0272 27.5713 97.1158 26.938 97.1158 26.33C97.1158 25.2153 96.8752 24.2147 96.3938 23.328C95.9378 22.416 95.1905 21.7193 94.1518 21.238L87.1218 21.846L81.3838 19.3L91.9858 18.996C94.0125 18.996 95.6845 19.3507 97.0018 20.06C98.3445 20.7693 99.3452 21.6813 100.004 22.796C100.662 23.9107 100.992 25.0887 100.992 26.33C100.992 27.5207 100.675 28.7113 100.042 29.902C99.4085 31.0927 98.4458 32.0933 97.1538 32.904C95.8872 33.6893 94.2785 34.0947 92.3278 34.12L86.3238 34.158ZM81.0418 44L80.8138 42.784C81.3965 42.5053 82.0045 42.2647 82.6378 42.062C83.2965 41.834 83.9425 41.6313 84.5758 41.454L84.6138 44H81.0418ZM86.2858 44L86.3998 41.606L91.6438 42.214L91.6058 44H86.2858ZM84.0438 44V19.3H87.5778V44H84.0438ZM97.9898 44L98.1038 41.72L103.348 42.214L103.31 44H97.9898ZM84.9938 21.352L81.3458 21.124L81.3838 19.3H84.9178L84.9938 21.352ZM97.5338 44L91.2638 32.638L94.7978 32.296L102.018 44H97.5338Z" fill="white"/>
</svg>
